<svg xmlns="http://www.w3.org/2000/svg" xmlns:xlink="http://www.w3.org/1999/xlink" id="processonSvg1000" viewBox="5.0 6.0 651.0 519.5000000000002" width="651.0" height="519.5000000000002"><defs id="ProcessOnDefs1001"><marker id="ProcessOnMarker1055" markerUnits="userSpaceOnUse" orient="auto" markerWidth="16.23606797749979" markerHeight="10.550836550532098" viewBox="-1.0 -1.3763819204711736 16.23606797749979 10.550836550532098" refX="-1.0" refY="3.8990363547948754"><path id="ProcessOnPath1056" d="M12.0 3.8990363547948754L0.0 7.798072709589751V0.0Z" stroke="#323232" stroke-width="2.0" fill="#323232" transform="matrix(1.0,0.0,0.0,1.0,0.0,0.0)"/></marker><marker id="ProcessOnMarker1059" markerUnits="userSpaceOnUse" orient="auto" markerWidth="16.23606797749979" markerHeight="10.550836550532098" viewBox="-1.0 -1.3763819204711736 16.23606797749979 10.550836550532098" refX="-1.0" refY="3.8990363547948754"><path id="ProcessOnPath1060" d="M12.0 3.8990363547948754L0.0 7.798072709589751V0.0Z" stroke="#323232" stroke-width="2.0" fill="#323232" transform="matrix(1.0,0.0,0.0,1.0,0.0,0.0)"/></marker><marker id="ProcessOnMarker1063" markerUnits="userSpaceOnUse" orient="auto" markerWidth="16.23606797749979" markerHeight="10.550836550532098" viewBox="-1.0 -1.3763819204711736 16.23606797749979 10.550836550532098" refX="-1.0" refY="3.8990363547948754"><path id="ProcessOnPath1064" d="M12.0 3.8990363547948754L0.0 7.798072709589751V0.0Z" stroke="#323232" stroke-width="2.0" fill="#323232" transform="matrix(1.0,0.0,0.0,1.0,0.0,0.0)"/></marker><marker id="ProcessOnMarker1067" markerUnits="userSpaceOnUse" orient="auto" markerWidth="16.23606797749979" markerHeight="10.550836550532098" viewBox="-1.0 -1.3763819204711736 16.23606797749979 10.550836550532098" refX="-1.0" refY="3.8990363547948754"><path id="ProcessOnPath1068" d="M12.0 3.8990363547948754L0.0 7.798072709589751V0.0Z" stroke="#323232" stroke-width="2.0" fill="#323232" transform="matrix(1.0,0.0,0.0,1.0,0.0,0.0)"/></marker><marker id="ProcessOnMarker1071" markerUnits="userSpaceOnUse" orient="auto" markerWidth="16.23606797749979" markerHeight="10.550836550532098" viewBox="-1.0 -1.3763819204711736 16.23606797749979 10.550836550532098" refX="-1.0" refY="3.8990363547948754"><path id="ProcessOnPath1072" d="M12.0 3.8990363547948754L0.0 7.798072709589751V0.0Z" stroke="#323232" stroke-width="2.0" fill="#323232" transform="matrix(1.0,0.0,0.0,1.0,0.0,0.0)"/></marker><marker id="ProcessOnMarker1075" markerUnits="userSpaceOnUse" orient="auto" markerWidth="16.23606797749979" markerHeight="10.550836550532098" viewBox="-1.0 -1.3763819204711736 16.23606797749979 10.550836550532098" refX="-1.0" refY="3.8990363547948754"><path id="ProcessOnPath1076" d="M12.0 3.8990363547948754L0.0 7.798072709589751V0.0Z" stroke="#323232" stroke-width="2.0" fill="#323232" transform="matrix(1.0,0.0,0.0,1.0,0.0,0.0)"/></marker><marker id="ProcessOnMarker1079" markerUnits="userSpaceOnUse" orient="auto" markerWidth="16.23606797749979" markerHeight="10.550836550532098" viewBox="-1.0 -1.3763819204711736 16.23606797749979 10.550836550532098" refX="-1.0" refY="3.8990363547948754"><path id="ProcessOnPath1080" d="M12.0 3.8990363547948754L0.0 7.798072709589751V0.0Z" stroke="#323232" stroke-width="2.0" fill="#323232" transform="matrix(1.0,0.0,0.0,1.0,0.0,0.0)"/></marker><marker id="ProcessOnMarker1083" markerUnits="userSpaceOnUse" orient="auto" markerWidth="16.23606797749979" markerHeight="10.550836550532098" viewBox="-1.0 -1.3763819204711736 16.23606797749979 10.550836550532098" refX="-1.0" refY="3.8990363547948754"><path id="ProcessOnPath1084" d="M12.0 3.8990363547948754L0.0 7.798072709589751V0.0Z" stroke="#323232" stroke-width="2.0" fill="#323232" transform="matrix(1.0,0.0,0.0,1.0,0.0,0.0)"/></marker><marker id="ProcessOnMarker1087" markerUnits="userSpaceOnUse" orient="auto" markerWidth="16.23606797749979" markerHeight="10.550836550532098" viewBox="-1.0 -1.3763819204711736 16.23606797749979 10.550836550532098" refX="-1.0" refY="3.8990363547948754"><path id="ProcessOnPath1088" d="M12.0 3.8990363547948754L0.0 7.798072709589751V0.0Z" stroke="#323232" stroke-width="2.0" fill="#323232" transform="matrix(1.0,0.0,0.0,1.0,0.0,0.0)"/></marker><marker id="ProcessOnMarker1091" markerUnits="userSpaceOnUse" orient="auto" markerWidth="16.23606797749979" markerHeight="10.550836550532098" viewBox="-1.0 -1.3763819204711736 16.23606797749979 10.550836550532098" refX="-1.0" refY="3.8990363547948754"><path id="ProcessOnPath1092" d="M12.0 3.8990363547948754L0.0 7.798072709589751V0.0Z" stroke="#323232" stroke-width="2.0" fill="#323232" transform="matrix(1.0,0.0,0.0,1.0,0.0,0.0)"/></marker><marker id="ProcessOnMarker1095" markerUnits="userSpaceOnUse" orient="auto" markerWidth="16.23606797749979" markerHeight="10.550836550532098" viewBox="-1.0 -1.3763819204711736 16.23606797749979 10.550836550532098" refX="-1.0" refY="3.8990363547948754"><path id="ProcessOnPath1096" d="M12.0 3.8990363547948754L0.0 7.798072709589751V0.0Z" stroke="#323232" stroke-width="2.0" fill="#323232" transform="matrix(1.0,0.0,0.0,1.0,0.0,0.0)"/></marker><marker id="ProcessOnMarker1103" markerUnits="userSpaceOnUse" orient="auto" markerWidth="16.23606797749979" markerHeight="10.550836550532098" viewBox="-1.0 -1.3763819204711736 16.23606797749979 10.550836550532098" refX="-1.0" refY="3.8990363547948754"><path id="ProcessOnPath1104" d="M12.0 3.8990363547948754L0.0 7.798072709589751V0.0Z" stroke="#323232" stroke-width="2.0" fill="#323232" transform="matrix(1.0,0.0,0.0,1.0,0.0,0.0)"/></marker><marker id="ProcessOnMarker1111" markerUnits="userSpaceOnUse" orient="auto" markerWidth="16.23606797749979" markerHeight="10.550836550532098" viewBox="-1.0 -1.3763819204711736 16.23606797749979 10.550836550532098" refX="-1.0" refY="3.8990363547948754"><path id="ProcessOnPath1112" d="M12.0 3.8990363547948754L0.0 7.798072709589751V0.0Z" stroke="#323232" stroke-width="2.0" fill="#323232" transform="matrix(1.0,0.0,0.0,1.0,0.0,0.0)"/></marker><marker id="ProcessOnMarker1119" markerUnits="userSpaceOnUse" orient="auto" markerWidth="16.23606797749979" markerHeight="10.550836550532098" viewBox="-1.0 -1.3763819204711736 16.23606797749979 10.550836550532098" refX="-1.0" refY="3.8990363547948754"><path id="ProcessOnPath1120" d="M12.0 3.8990363547948754L0.0 7.798072709589751V0.0Z" stroke="#323232" stroke-width="2.0" fill="#323232" transform="matrix(1.0,0.0,0.0,1.0,0.0,0.0)"/></marker><marker id="ProcessOnMarker1127" markerUnits="userSpaceOnUse" orient="auto" markerWidth="16.23606797749979" markerHeight="10.550836550532098" viewBox="-1.0 -1.3763819204711736 16.23606797749979 10.550836550532098" refX="-1.0" refY="3.8990363547948754"><path id="ProcessOnPath1128" d="M12.0 3.8990363547948754L0.0 7.798072709589751V0.0Z" stroke="#323232" stroke-width="2.0" fill="#323232" transform="matrix(1.0,0.0,0.0,1.0,0.0,0.0)"/></marker><marker id="ProcessOnMarker1137" markerUnits="userSpaceOnUse" orient="auto" markerWidth="16.23606797749979" markerHeight="10.550836550532098" viewBox="-1.0 -1.3763819204711736 16.23606797749979 10.550836550532098" refX="-1.0" refY="3.8990363547948754"><path id="ProcessOnPath1138" d="M12.0 3.8990363547948754L0.0 7.798072709589751V0.0Z" stroke="#323232" stroke-width="2.0" fill="#323232" transform="matrix(1.0,0.0,0.0,1.0,0.0,0.0)"/></marker><marker id="ProcessOnMarker1145" markerUnits="userSpaceOnUse" orient="auto" markerWidth="16.23606797749979" markerHeight="10.550836550532098" viewBox="-1.0 -1.3763819204711736 16.23606797749979 10.550836550532098" refX="-1.0" refY="3.8990363547948754"><path id="ProcessOnPath1146" d="M12.0 3.8990363547948754L0.0 7.798072709589751V0.0Z" stroke="#323232" stroke-width="2.0" fill="#323232" transform="matrix(1.0,0.0,0.0,1.0,0.0,0.0)"/></marker></defs><g id="ProcessOnG1002"><path id="ProcessOnPath1003" d="M5.0 6.0H656.0V525.5000000000002H5.0V6.0Z" fill="none"/><g id="ProcessOnG1004"><g id="ProcessOnG1005" transform="matrix(1.0,0.0,0.0,1.0,25.0,265.0104602510461)" opacity="1.0"><path id="ProcessOnPath1006" d="M0.0 0.0L100.65897858319603 0.0L100.65897858319603 43.56694560669456L0.0 43.56694560669456Z" stroke="#323232" stroke-width="2.0" stroke-dasharray="none" opacity="1.0" fill="#ff6666"/><g id="ProcessOnG1007" transform="matrix(1.0,0.0,0.0,1.0,10.0,13.65847280334728)"><text id="ProcessOnText1008" fill="#000000" font-size="13" x="39.329489291598016" y="13.325" font-family="微软雅黑" font-weight="normal" font-style="normal" text-decoration="none" family="微软雅黑" text-anchor="middle" size="13">项目名称</text></g></g><g id="ProcessOnG1009" transform="matrix(1.0,0.0,0.0,1.0,212.22570016474467,392.22594142259413)" opacity="1.0"><path id="ProcessOnPath1010" d="M0.0 0.0L100.65897858319603 0.0L100.65897858319603 43.56694560669456L0.0 43.56694560669456Z" stroke="#323232" stroke-width="2.0" stroke-dasharray="none" opacity="1.0" fill="#ff66ff"/><g id="ProcessOnG1011" transform="matrix(1.0,0.0,0.0,1.0,10.0,13.65847280334728)"><text id="ProcessOnText1012" fill="#000000" font-size="13" x="39.329489291598016" y="13.325" font-family="微软雅黑" font-weight="normal" font-style="normal" text-decoration="none" family="微软雅黑" text-anchor="middle" size="13">Projects</text></g></g><g id="ProcessOnG1013" transform="matrix(1.0,0.0,0.0,1.0,212.22570016474467,461.9330543933056)" opacity="1.0"><path id="ProcessOnPath1014" d="M0.0 0.0L100.65897858319603 0.0L100.65897858319603 43.56694560669456L0.0 43.56694560669456Z" stroke="#323232" stroke-width="2.0" stroke-dasharray="none" opacity="1.0" fill="#ff33ff"/><g id="ProcessOnG1015" transform="matrix(1.0,0.0,0.0,1.0,10.0,13.65847280334728)"><text id="ProcessOnText1016" fill="#000000" font-size="13" x="39.329489291598016" y="13.325" font-family="微软雅黑" font-weight="normal" font-style="normal" text-decoration="none" family="微软雅黑" text-anchor="middle" size="13">src</text></g></g><g id="ProcessOnG1017" transform="matrix(1.0,0.0,0.0,1.0,212.22570016474467,265.0104602510461)" opacity="1.0"><path id="ProcessOnPath1018" d="M0.0 0.0L100.65897858319603 0.0L100.65897858319603 43.56694560669456L0.0 43.56694560669456Z" stroke="#323232" stroke-width="2.0" stroke-dasharray="none" opacity="1.0" fill="#ff9933"/><g id="ProcessOnG1019" transform="matrix(1.0,0.0,0.0,1.0,10.0,13.65847280334728)"><text id="ProcessOnText1020" fill="#000000" font-size="13" x="39.329489291598016" y="13.325" font-family="微软雅黑" font-weight="normal" font-style="normal" text-decoration="none" family="微软雅黑" text-anchor="middle" size="13">include</text></g></g><g id="ProcessOnG1021" transform="matrix(1.0,0.0,0.0,1.0,212.22570016474467,143.89435146443515)" opacity="1.0"><path id="ProcessOnPath1022" d="M0.0 0.0L100.65897858319603 0.0L100.65897858319603 43.56694560669456L0.0 43.56694560669456Z" stroke="#323232" stroke-width="2.0" stroke-dasharray="none" opacity="1.0" fill="#b266ff"/><g id="ProcessOnG1023" transform="matrix(1.0,0.0,0.0,1.0,10.0,13.65847280334728)"><text id="ProcessOnText1024" fill="#000000" font-size="13" x="39.329489291598016" y="13.325" font-family="微软雅黑" font-weight="normal" font-style="normal" text-decoration="none" family="微软雅黑" text-anchor="middle" size="13">data</text></g></g><g id="ProcessOnG1025" transform="matrix(1.0,0.0,0.0,1.0,212.22570016474467,89.0)" opacity="1.0"><path id="ProcessOnPath1026" d="M0.0 0.0L100.65897858319603 0.0L100.65897858319603 43.56694560669456L0.0 43.56694560669456Z" stroke="#323232" stroke-width="2.0" stroke-dasharray="none" opacity="1.0" fill="#cc99ff"/><g id="ProcessOnG1027" transform="matrix(1.0,0.0,0.0,1.0,10.0,13.65847280334728)"><text id="ProcessOnText1028" fill="#000000" font-size="13" x="39.329489291598016" y="13.325" font-family="微软雅黑" font-weight="normal" font-style="normal" text-decoration="none" family="微软雅黑" text-anchor="middle" size="13">bin</text></g></g><g id="ProcessOnG1029" transform="matrix(1.0,0.0,0.0,1.0,212.22570016474467,202.27405857740587)" opacity="1.0"><path id="ProcessOnPath1030" d="M0.0 0.0L100.65897858319603 0.0L100.65897858319603 43.56694560669456L0.0 43.56694560669456Z" stroke="#323232" stroke-width="2.0" stroke-dasharray="none" opacity="1.0" fill="#9933ff"/><g id="ProcessOnG1031" transform="matrix(1.0,0.0,0.0,1.0,10.0,13.65847280334728)"><text id="ProcessOnText1032" fill="#000000" font-size="13" x="39.329489291598016" y="13.325" font-family="微软雅黑" font-weight="normal" font-style="normal" text-decoration="none" family="微软雅黑" text-anchor="middle" size="13">doc</text></g></g><g id="ProcessOnG1033" transform="matrix(1.0,0.0,0.0,1.0,212.22570016474467,331.23221757322176)" opacity="1.0"><path id="ProcessOnPath1034" d="M0.0 0.0L100.65897858319603 0.0L100.65897858319603 43.56694560669456L0.0 43.56694560669456Z" stroke="#323232" stroke-width="2.0" stroke-dasharray="none" opacity="1.0" fill="#ff99ff"/><g id="ProcessOnG1035" transform="matrix(1.0,0.0,0.0,1.0,10.0,13.65847280334728)"><text id="ProcessOnText1036" fill="#000000" font-size="13" x="39.329489291598016" y="13.325" font-family="微软雅黑" font-weight="normal" font-style="normal" text-decoration="none" family="微软雅黑" text-anchor="middle" size="13">lib</text></g></g><g id="ProcessOnG1037" transform="matrix(1.0,0.0,0.0,1.0,385.3591433278419,461.9330543933056)" opacity="1.0"><path id="ProcessOnPath1038" d="M0.0 0.0L100.65897858319603 0.0L100.65897858319603 43.56694560669456L0.0 43.56694560669456Z" stroke="#323232" stroke-width="2.0" stroke-dasharray="none" opacity="1.0" fill="#ffff66"/><g id="ProcessOnG1039" transform="matrix(1.0,0.0,0.0,1.0,10.0,13.65847280334728)"><text id="ProcessOnText1040" fill="#000000" font-size="13" x="39.329489291598016" y="13.325" font-family="微软雅黑" font-weight="normal" font-style="normal" text-decoration="none" family="微软雅黑" text-anchor="middle" size="13">projectname</text></g></g><g id="ProcessOnG1041" transform="matrix(1.0,0.0,0.0,1.0,382.339373970346,265.0104602510461)" opacity="1.0"><path id="ProcessOnPath1042" d="M0.0 0.0L100.65897858319603 0.0L100.65897858319603 43.56694560669456L0.0 43.56694560669456Z" stroke="#323232" stroke-width="2.0" stroke-dasharray="none" opacity="1.0" fill="#ffff66"/><g id="ProcessOnG1043" transform="matrix(1.0,0.0,0.0,1.0,10.0,13.65847280334728)"><text id="ProcessOnText1044" fill="#000000" font-size="13" x="39.329489291598016" y="13.325" font-family="微软雅黑" font-weight="normal" font-style="normal" text-decoration="none" family="微软雅黑" text-anchor="middle" size="13">projectname</text></g></g><g id="ProcessOnG1045" transform="matrix(1.0,0.0,0.0,1.0,529.3014827018121,265.0104602510461)" opacity="1.0"><path id="ProcessOnPath1046" d="M0.0 0.0L100.65897858319603 0.0L100.65897858319603 43.56694560669456L0.0 43.56694560669456Z" stroke="#323232" stroke-width="2.0" stroke-dasharray="none" opacity="1.0" fill="#ffcc99"/><g id="ProcessOnG1047" transform="matrix(1.0,0.0,0.0,1.0,10.0,13.65847280334728)"><text id="ProcessOnText1048" fill="#000000" font-size="13" x="39.329489291598016" y="13.325" font-family="微软雅黑" font-weight="normal" font-style="normal" text-decoration="none" family="微软雅黑" text-anchor="middle" size="13">header.h</text></g></g><g id="ProcessOnG1049" transform="matrix(1.0,0.0,0.0,1.0,535.341021416804,461.9330543933056)" opacity="1.0"><path id="ProcessOnPath1050" d="M0.0 0.0L100.65897858319603 0.0L100.65897858319603 43.56694560669456L0.0 43.56694560669456Z" stroke="#323232" stroke-width="2.0" stroke-dasharray="none" opacity="1.0" fill="#ccccff"/><g id="ProcessOnG1051" transform="matrix(1.0,0.0,0.0,1.0,10.0,13.65847280334728)"><text id="ProcessOnText1052" fill="#000000" font-size="13" x="39.329489291598016" y="13.325" font-family="微软雅黑" font-weight="normal" font-style="normal" text-decoration="none" family="微软雅黑" text-anchor="middle" size="13">source.cpp</text></g></g><g id="ProcessOnG1053"><path id="ProcessOnPath1054" d="M125.6589785831961 286.79393305439334L168.94233937397038 286.79393305439334L168.94233937397038 414.00941422594144L196.98963218724487 414.00941422594144" stroke="#323232" stroke-width="2.0" stroke-dasharray="none" fill="none" marker-end="url(#ProcessOnMarker1055)"/></g><g id="ProcessOnG1057"><path id="ProcessOnPath1058" d="M125.6589785831961 286.79393305439334L168.94233937397038 286.79393305439334L168.94233937397038 483.7165271966529L196.98963218724487 483.7165271966529" stroke="#323232" stroke-width="2.0" stroke-dasharray="none" fill="none" marker-end="url(#ProcessOnMarker1059)"/></g><g id="ProcessOnG1061"><path id="ProcessOnPath1062" d="M125.6589785831961 286.79393305439334L168.94233937397038 286.79393305439334L168.94233937397038 286.79393305439334L196.98963218724487 286.79393305439334" stroke="#323232" stroke-width="2.0" stroke-dasharray="none" fill="none" marker-end="url(#ProcessOnMarker1063)"/></g><g id="ProcessOnG1065"><path id="ProcessOnPath1066" d="M125.6589785831961 286.79393305439334L168.94233937397038 286.79393305439334L168.94233937397038 165.67782426778246L196.98963218724487 165.67782426778246" stroke="#323232" stroke-width="2.0" stroke-dasharray="none" fill="none" marker-end="url(#ProcessOnMarker1067)"/></g><g id="ProcessOnG1069"><path id="ProcessOnPath1070" d="M125.6589785831961 286.79393305439334L168.94233937397038 286.79393305439334L168.94233937397038 110.78347280334728L196.98963218724487 110.78347280334728" stroke="#323232" stroke-width="2.0" stroke-dasharray="none" fill="none" marker-end="url(#ProcessOnMarker1071)"/></g><g id="ProcessOnG1073"><path id="ProcessOnPath1074" d="M125.6589785831961 286.79393305439334L168.94233937397038 286.79393305439334L168.94233937397038 224.05753138075312L196.98963218724487 224.05753138075312" stroke="#323232" stroke-width="2.0" stroke-dasharray="none" fill="none" marker-end="url(#ProcessOnMarker1075)"/></g><g id="ProcessOnG1077"><path id="ProcessOnPath1078" d="M125.6589785831961 286.79393305439334L168.94233937397038 286.79393305439334L168.94233937397038 353.015690376569L196.98963218724487 353.015690376569" stroke="#323232" stroke-width="2.0" stroke-dasharray="none" fill="none" marker-end="url(#ProcessOnMarker1079)"/></g><g id="ProcessOnG1081"><path id="ProcessOnPath1082" d="M312.88467874794065 483.7165271966529L349.12191103789127 483.7165271966529L349.12191103789127 483.7165271966529L370.1230753503421 483.7165271966529" stroke="#323232" stroke-width="2.0" stroke-dasharray="none" fill="none" marker-end="url(#ProcessOnMarker1083)"/></g><g id="ProcessOnG1085"><path id="ProcessOnPath1086" d="M312.88467874794065 286.79393305439334L347.61202635914333 286.79393305439334L347.61202635914333 286.79393305439334L367.10330599284623 286.79393305439334" stroke="#323232" stroke-width="2.0" stroke-dasharray="none" fill="none" marker-end="url(#ProcessOnMarker1087)"/></g><g id="ProcessOnG1089"><path id="ProcessOnPath1090" d="M486.01812191103784 483.7165271966529L510.6795716639209 483.7165271966529L510.6795716639209 483.7165271966529L520.1049534393042 483.7165271966529" stroke="#323232" stroke-width="2.0" stroke-dasharray="none" fill="none" marker-end="url(#ProcessOnMarker1091)"/></g><g id="ProcessOnG1093"><path id="ProcessOnPath1094" d="M482.99835255354196 286.79393305439334L506.14991762767704 286.79393305439334L506.14991762767704 286.79393305439334L514.0654147243123 286.79393305439334" stroke="#323232" stroke-width="2.0" stroke-dasharray="none" fill="none" marker-end="url(#ProcessOnMarker1095)"/></g><g id="ProcessOnG1097" transform="matrix(1.0,0.0,0.0,1.0,385.3591433278419,331.23221757322176)" opacity="1.0"><path id="ProcessOnPath1098" d="M0.0 0.0L100.65897858319603 0.0L100.65897858319603 43.56694560669456L0.0 43.56694560669456Z" stroke="#323232" stroke-width="2.0" stroke-dasharray="none" opacity="1.0" fill="#ffff66"/><g id="ProcessOnG1099" transform="matrix(1.0,0.0,0.0,1.0,10.0,13.65847280334728)"><text id="ProcessOnText1100" fill="#000000" font-size="13" x="39.329489291598016" y="13.325" font-family="微软雅黑" font-weight="normal" font-style="normal" text-decoration="none" family="微软雅黑" text-anchor="middle" size="13">projectname</text></g></g><g id="ProcessOnG1101"><path id="ProcessOnPath1102" d="M312.88467874794065 353.015690376569L349.12191103789127 353.015690376569L349.12191103789127 353.015690376569L370.1230753503421 353.015690376569" stroke="#323232" stroke-width="2.0" stroke-dasharray="none" fill="none" marker-end="url(#ProcessOnMarker1103)"/></g><g id="ProcessOnG1105" transform="matrix(1.0,0.0,0.0,1.0,532.3212520593079,331.23221757322176)" opacity="1.0"><path id="ProcessOnPath1106" d="M0.0 0.0L100.65897858319603 0.0L100.65897858319603 43.56694560669456L0.0 43.56694560669456Z" stroke="#323232" stroke-width="2.0" stroke-dasharray="none" opacity="1.0" fill="#ffcce6"/><g id="ProcessOnG1107" transform="matrix(1.0,0.0,0.0,1.0,10.0,13.65847280334728)"><text id="ProcessOnText1108" fill="#000000" font-size="13" x="39.329489291598016" y="13.325" font-family="微软雅黑" font-weight="normal" font-style="normal" text-decoration="none" family="微软雅黑" text-anchor="middle" size="13">a.lib</text></g></g><g id="ProcessOnG1109"><path id="ProcessOnPath1110" d="M486.01812191103784 353.015690376569L509.1696869851728 353.015690376569L509.1696869851728 353.015690376569L517.085184081808 353.015690376569" stroke="#323232" stroke-width="2.0" stroke-dasharray="none" fill="none" marker-end="url(#ProcessOnMarker1111)"/></g><g id="ProcessOnG1113" transform="matrix(1.0,0.0,0.0,1.0,385.3591433278419,392.22594142259413)" opacity="1.0"><path id="ProcessOnPath1114" d="M0.0 0.0L100.65897858319603 0.0L100.65897858319603 43.56694560669456L0.0 43.56694560669456Z" stroke="#323232" stroke-width="2.0" stroke-dasharray="none" opacity="1.0" fill="#ffff66"/><g id="ProcessOnG1115" transform="matrix(1.0,0.0,0.0,1.0,10.0,13.65847280334728)"><text id="ProcessOnText1116" fill="#000000" font-size="13" x="39.329489291598016" y="13.325" font-family="微软雅黑" font-weight="normal" font-style="normal" text-decoration="none" family="微软雅黑" text-anchor="middle" size="13">projectname</text></g></g><g id="ProcessOnG1117"><path id="ProcessOnPath1118" d="M312.88467874794065 414.00941422594144L349.12191103789127 414.00941422594144L349.12191103789127 414.00941422594144L370.1230753503421 414.00941422594144" stroke="#323232" stroke-width="2.0" stroke-dasharray="none" fill="none" marker-end="url(#ProcessOnMarker1119)"/></g><g id="ProcessOnG1121" transform="matrix(1.0,0.0,0.0,1.0,532.3212520593079,392.22594142259413)" opacity="1.0"><path id="ProcessOnPath1122" d="M0.0 0.0L100.65897858319603 0.0L100.65897858319603 43.56694560669456L0.0 43.56694560669456Z" stroke="#323232" stroke-width="2.0" stroke-dasharray="none" opacity="1.0" fill="#ffccff"/><g id="ProcessOnG1123" transform="matrix(1.0,0.0,0.0,1.0,10.0,13.65847280334728)"><text id="ProcessOnText1124" fill="#000000" font-size="13" x="39.329489291598016" y="13.325" font-family="微软雅黑" font-weight="normal" font-style="normal" text-decoration="none" family="微软雅黑" text-anchor="middle" size="13">project.pro</text></g></g><g id="ProcessOnG1125"><path id="ProcessOnPath1126" d="M486.01812191103784 414.00941422594144L509.1696869851728 414.00941422594144L509.1696869851728 414.00941422594144L517.085184081808 414.00941422594144" stroke="#323232" stroke-width="2.0" stroke-dasharray="none" fill="none" marker-end="url(#ProcessOnMarker1127)"/></g><g id="ProcessOnG1129" transform="matrix(1.0,0.0,0.0,1.0,382.339373970346,89.0)" opacity="1.0"><path id="ProcessOnPath1130" d="M0.0 0.0L100.65897858319603 0.0L100.65897858319603 43.56694560669456L0.0 43.56694560669456Z" stroke="#323232" stroke-width="2.0" stroke-dasharray="none" opacity="1.0" fill="#ffcc99"/><g id="ProcessOnG1131" transform="matrix(1.0,0.0,0.0,1.0,10.0,-2.59152719665272)"><text id="ProcessOnText1132" fill="#000000" font-size="13" x="39.329489291598016" y="13.325" font-family="微软雅黑" font-weight="normal" font-style="normal" text-decoration="none" family="微软雅黑" text-anchor="middle" size="13">bin.exe</text><text id="ProcessOnText1133" fill="#000000" font-size="13" x="39.329489291598016" y="29.575" font-family="微软雅黑" font-weight="normal" font-style="normal" text-decoration="none" family="微软雅黑" text-anchor="middle" size="13">bin.dll</text><text id="ProcessOnText1134" fill="#000000" font-size="13" x="39.329489291598016" y="45.825" font-family="微软雅黑" font-weight="normal" font-style="normal" text-decoration="none" family="微软雅黑" text-anchor="middle" size="13">...</text></g></g><g id="ProcessOnG1135"><path id="ProcessOnPath1136" d="M312.88467874794065 110.78347280334728L347.61202635914333 110.78347280334728L347.61202635914333 110.78347280334728L367.10330599284623 110.78347280334728" stroke="#323232" stroke-width="2.0" stroke-dasharray="none" fill="none" marker-end="url(#ProcessOnMarker1137)"/></g><g id="ProcessOnG1139" transform="matrix(1.0,0.0,0.0,1.0,212.2257001647447,26.0)" opacity="1.0"><path id="ProcessOnPath1140" d="M0.0 0.0L100.65897858319603 0.0L100.65897858319603 43.56694560669456L0.0 43.56694560669456Z" stroke="#323232" stroke-width="2.0" stroke-dasharray="none" opacity="1.0" fill="#33ff99"/><g id="ProcessOnG1141" transform="matrix(1.0,0.0,0.0,1.0,10.0,13.65847280334728)"><text id="ProcessOnText1142" fill="#000000" font-size="13" x="39.329489291598016" y="13.325" font-family="微软雅黑" font-weight="normal" font-style="normal" text-decoration="none" family="微软雅黑" text-anchor="middle" size="13">3rd</text></g></g><g id="ProcessOnG1143"><path id="ProcessOnPath1144" d="M125.65897858319602 286.7939330543934L168.94233937397036 286.7939330543934L168.94233937397036 47.78347280334728L196.9896321872449 47.78347280334728" stroke="#323232" stroke-width="2.0" stroke-dasharray="none" fill="none" marker-end="url(#ProcessOnMarker1145)"/></g></g></g></svg>