<svg xmlns="http://www.w3.org/2000/svg" xmlns:xlink="http://www.w3.org/1999/xlink" id="processonSvg1000" viewBox="5.0 4.853033472803347 649.0 467.14696652719664" width="649.0" height="467.14696652719664"><defs id="ProcessOnDefs1001"><marker id="ProcessOnMarker1055" markerUnits="userSpaceOnUse" orient="auto" markerWidth="16.23606797749979" markerHeight="10.550836550532098" viewBox="-1.0 -1.3763819204711736 16.23606797749979 10.550836550532098" refX="-1.0" refY="3.8990363547948754"><path id="ProcessOnPath1056" d="M12.0 3.8990363547948754L0.0 7.798072709589751V0.0Z" stroke="#323232" stroke-width="2.0" fill="#323232" transform="matrix(1.0,0.0,0.0,1.0,0.0,0.0)"/></marker><marker id="ProcessOnMarker1059" markerUnits="userSpaceOnUse" orient="auto" markerWidth="16.23606797749979" markerHeight="10.550836550532098" viewBox="-1.0 -1.3763819204711736 16.23606797749979 10.550836550532098" refX="-1.0" refY="3.8990363547948754"><path id="ProcessOnPath1060" d="M12.0 3.8990363547948754L0.0 7.798072709589751V0.0Z" stroke="#323232" stroke-width="2.0" fill="#323232" transform="matrix(1.0,0.0,0.0,1.0,0.0,0.0)"/></marker><marker id="ProcessOnMarker1063" markerUnits="userSpaceOnUse" orient="auto" markerWidth="16.23606797749979" markerHeight="10.550836550532098" viewBox="-1.0 -1.3763819204711736 16.23606797749979 10.550836550532098" refX="-1.0" refY="3.8990363547948754"><path id="ProcessOnPath1064" d="M12.0 3.8990363547948754L0.0 7.798072709589751V0.0Z" stroke="#323232" stroke-width="2.0" fill="#323232" transform="matrix(1.0,0.0,0.0,1.0,0.0,0.0)"/></marker><marker id="ProcessOnMarker1067" markerUnits="userSpaceOnUse" orient="auto" markerWidth="16.23606797749979" markerHeight="10.550836550532098" viewBox="-1.0 -1.3763819204711736 16.23606797749979 10.550836550532098" refX="-1.0" refY="3.8990363547948754"><path id="ProcessOnPath1068" d="M12.0 3.8990363547948754L0.0 7.798072709589751V0.0Z" stroke="#323232" stroke-width="2.0" fill="#323232" transform="matrix(1.0,0.0,0.0,1.0,0.0,0.0)"/></marker><marker id="ProcessOnMarker1071" markerUnits="userSpaceOnUse" orient="auto" markerWidth="16.23606797749979" markerHeight="10.550836550532098" viewBox="-1.0 -1.3763819204711736 16.23606797749979 10.550836550532098" refX="-1.0" refY="3.8990363547948754"><path id="ProcessOnPath1072" d="M12.0 3.8990363547948754L0.0 7.798072709589751V0.0Z" stroke="#323232" stroke-width="2.0" fill="#323232" transform="matrix(1.0,0.0,0.0,1.0,0.0,0.0)"/></marker><marker id="ProcessOnMarker1075" markerUnits="userSpaceOnUse" orient="auto" markerWidth="16.23606797749979" markerHeight="10.550836550532098" viewBox="-1.0 -1.3763819204711736 16.23606797749979 10.550836550532098" refX="-1.0" refY="3.8990363547948754"><path id="ProcessOnPath1076" d="M12.0 3.8990363547948754L0.0 7.798072709589751V0.0Z" stroke="#323232" stroke-width="2.0" fill="#323232" transform="matrix(1.0,0.0,0.0,1.0,0.0,0.0)"/></marker><marker id="ProcessOnMarker1079" markerUnits="userSpaceOnUse" orient="auto" markerWidth="16.23606797749979" markerHeight="10.550836550532098" viewBox="-1.0 -1.3763819204711736 16.23606797749979 10.550836550532098" refX="-1.0" refY="3.8990363547948754"><path id="ProcessOnPath1080" d="M12.0 3.8990363547948754L0.0 7.798072709589751V0.0Z" stroke="#323232" stroke-width="2.0" fill="#323232" transform="matrix(1.0,0.0,0.0,1.0,0.0,0.0)"/></marker><marker id="ProcessOnMarker1083" markerUnits="userSpaceOnUse" orient="auto" markerWidth="16.23606797749979" markerHeight="10.550836550532098" viewBox="-1.0 -1.3763819204711736 16.23606797749979 10.550836550532098" refX="-1.0" refY="3.8990363547948754"><path id="ProcessOnPath1084" d="M12.0 3.8990363547948754L0.0 7.798072709589751V0.0Z" stroke="#323232" stroke-width="2.0" fill="#323232" transform="matrix(1.0,0.0,0.0,1.0,0.0,0.0)"/></marker><marker id="ProcessOnMarker1087" markerUnits="userSpaceOnUse" orient="auto" markerWidth="16.23606797749979" markerHeight="10.550836550532098" viewBox="-1.0 -1.3763819204711736 16.23606797749979 10.550836550532098" refX="-1.0" refY="3.8990363547948754"><path id="ProcessOnPath1088" d="M12.0 3.8990363547948754L0.0 7.798072709589751V0.0Z" stroke="#323232" stroke-width="2.0" fill="#323232" transform="matrix(1.0,0.0,0.0,1.0,0.0,0.0)"/></marker><marker id="ProcessOnMarker1091" markerUnits="userSpaceOnUse" orient="auto" markerWidth="16.23606797749979" markerHeight="10.550836550532098" viewBox="-1.0 -1.3763819204711736 16.23606797749979 10.550836550532098" refX="-1.0" refY="3.8990363547948754"><path id="ProcessOnPath1092" d="M12.0 3.8990363547948754L0.0 7.798072709589751V0.0Z" stroke="#323232" stroke-width="2.0" fill="#323232" transform="matrix(1.0,0.0,0.0,1.0,0.0,0.0)"/></marker><marker id="ProcessOnMarker1095" markerUnits="userSpaceOnUse" orient="auto" markerWidth="16.23606797749979" markerHeight="10.550836550532098" viewBox="-1.0 -1.3763819204711736 16.23606797749979 10.550836550532098" refX="-1.0" refY="3.8990363547948754"><path id="ProcessOnPath1096" d="M12.0 3.8990363547948754L0.0 7.798072709589751V0.0Z" stroke="#323232" stroke-width="2.0" fill="#323232" transform="matrix(1.0,0.0,0.0,1.0,0.0,0.0)"/></marker><marker id="ProcessOnMarker1103" markerUnits="userSpaceOnUse" orient="auto" markerWidth="16.23606797749979" markerHeight="10.550836550532098" viewBox="-1.0 -1.3763819204711736 16.23606797749979 10.550836550532098" refX="-1.0" refY="3.8990363547948754"><path id="ProcessOnPath1104" d="M12.0 3.8990363547948754L0.0 7.798072709589751V0.0Z" stroke="#323232" stroke-width="2.0" fill="#323232" transform="matrix(1.0,0.0,0.0,1.0,0.0,0.0)"/></marker><marker id="ProcessOnMarker1111" markerUnits="userSpaceOnUse" orient="auto" markerWidth="16.23606797749979" markerHeight="10.550836550532098" viewBox="-1.0 -1.3763819204711736 16.23606797749979 10.550836550532098" refX="-1.0" refY="3.8990363547948754"><path id="ProcessOnPath1112" d="M12.0 3.8990363547948754L0.0 7.798072709589751V0.0Z" stroke="#323232" stroke-width="2.0" fill="#323232" transform="matrix(1.0,0.0,0.0,1.0,0.0,0.0)"/></marker><marker id="ProcessOnMarker1119" markerUnits="userSpaceOnUse" orient="auto" markerWidth="16.23606797749979" markerHeight="10.550836550532098" viewBox="-1.0 -1.3763819204711736 16.23606797749979 10.550836550532098" refX="-1.0" refY="3.8990363547948754"><path id="ProcessOnPath1120" d="M12.0 3.8990363547948754L0.0 7.798072709589751V0.0Z" stroke="#323232" stroke-width="2.0" fill="#323232" transform="matrix(1.0,0.0,0.0,1.0,0.0,0.0)"/></marker><marker id="ProcessOnMarker1127" markerUnits="userSpaceOnUse" orient="auto" markerWidth="16.23606797749979" markerHeight="10.550836550532098" viewBox="-1.0 -1.3763819204711736 16.23606797749979 10.550836550532098" refX="-1.0" refY="3.8990363547948754"><path id="ProcessOnPath1128" d="M12.0 3.8990363547948754L0.0 7.798072709589751V0.0Z" stroke="#323232" stroke-width="2.0" fill="#323232" transform="matrix(1.0,0.0,0.0,1.0,0.0,0.0)"/></marker><marker id="ProcessOnMarker1137" markerUnits="userSpaceOnUse" orient="auto" markerWidth="16.23606797749979" markerHeight="10.550836550532098" viewBox="-1.0 -1.3763819204711736 16.23606797749979 10.550836550532098" refX="-1.0" refY="3.8990363547948754"><path id="ProcessOnPath1138" d="M12.0 3.8990363547948754L0.0 7.798072709589751V0.0Z" stroke="#323232" stroke-width="2.0" fill="#323232" transform="matrix(1.0,0.0,0.0,1.0,0.0,0.0)"/></marker></defs><g id="ProcessOnG1002"><path id="ProcessOnPath1003" d="M5.0 4.853033472803347H654.0V472.0H5.0V4.853033472803361Z" fill="none"/><g id="ProcessOnG1004"><g id="ProcessOnG1005" transform="matrix(1.0,0.0,0.0,1.0,25.0,206.60251046025104)" opacity="1.0"><path id="ProcessOnPath1006" d="M0.0 0.0L100.32948929159801 0.0L100.32948929159801 44.45606694560669L0.0 44.45606694560669Z" stroke="#323232" stroke-width="2.0" stroke-dasharray="none" opacity="1.0" fill="#ff6666"/><g id="ProcessOnG1007" transform="matrix(1.0,0.0,0.0,1.0,10.0,14.103033472803347)"><text id="ProcessOnText1008" fill="#000000" font-size="13" x="39.164744645799004" y="13.325" font-family="微软雅黑" font-weight="normal" font-style="normal" text-decoration="none" family="微软雅黑" text-anchor="middle" size="13">项目名称</text></g></g><g id="ProcessOnG1009" transform="matrix(1.0,0.0,0.0,1.0,211.61285008237232,336.4142259414226)" opacity="1.0"><path id="ProcessOnPath1010" d="M0.0 0.0L100.32948929159801 0.0L100.32948929159801 44.45606694560669L0.0 44.45606694560669Z" stroke="#323232" stroke-width="2.0" stroke-dasharray="none" opacity="1.0" fill="#ff66ff"/><g id="ProcessOnG1011" transform="matrix(1.0,0.0,0.0,1.0,10.0,14.103033472803347)"><text id="ProcessOnText1012" fill="#000000" font-size="13" x="39.164744645799004" y="13.325" font-family="微软雅黑" font-weight="normal" font-style="normal" text-decoration="none" family="微软雅黑" text-anchor="middle" size="13">Projects</text></g></g><g id="ProcessOnG1013" transform="matrix(1.0,0.0,0.0,1.0,211.61285008237232,407.54393305439334)" opacity="1.0"><path id="ProcessOnPath1014" d="M0.0 0.0L100.32948929159801 0.0L100.32948929159801 44.45606694560669L0.0 44.45606694560669Z" stroke="#323232" stroke-width="2.0" stroke-dasharray="none" opacity="1.0" fill="#ff33ff"/><g id="ProcessOnG1015" transform="matrix(1.0,0.0,0.0,1.0,10.0,14.103033472803347)"><text id="ProcessOnText1016" fill="#000000" font-size="13" x="39.164744645799004" y="13.325" font-family="微软雅黑" font-weight="normal" font-style="normal" text-decoration="none" family="微软雅黑" text-anchor="middle" size="13">src</text></g></g><g id="ProcessOnG1017" transform="matrix(1.0,0.0,0.0,1.0,211.61285008237232,206.60251046025104)" opacity="1.0"><path id="ProcessOnPath1018" d="M0.0 0.0L100.32948929159801 0.0L100.32948929159801 44.45606694560669L0.0 44.45606694560669Z" stroke="#323232" stroke-width="2.0" stroke-dasharray="none" opacity="1.0" fill="#ff9933"/><g id="ProcessOnG1019" transform="matrix(1.0,0.0,0.0,1.0,10.0,14.103033472803347)"><text id="ProcessOnText1020" fill="#000000" font-size="13" x="39.164744645799004" y="13.325" font-family="微软雅黑" font-weight="normal" font-style="normal" text-decoration="none" family="微软雅黑" text-anchor="middle" size="13">include</text></g></g><g id="ProcessOnG1021" transform="matrix(1.0,0.0,0.0,1.0,211.61285008237232,83.01464435146443)" opacity="1.0"><path id="ProcessOnPath1022" d="M0.0 0.0L100.32948929159801 0.0L100.32948929159801 44.45606694560669L0.0 44.45606694560669Z" stroke="#323232" stroke-width="2.0" stroke-dasharray="none" opacity="1.0" fill="#b266ff"/><g id="ProcessOnG1023" transform="matrix(1.0,0.0,0.0,1.0,10.0,14.103033472803347)"><text id="ProcessOnText1024" fill="#000000" font-size="13" x="39.164744645799004" y="13.325" font-family="微软雅黑" font-weight="normal" font-style="normal" text-decoration="none" family="微软雅黑" text-anchor="middle" size="13">data</text></g></g><g id="ProcessOnG1025" transform="matrix(1.0,0.0,0.0,1.0,211.61285008237232,27.0)" opacity="1.0"><path id="ProcessOnPath1026" d="M0.0 0.0L100.32948929159801 0.0L100.32948929159801 44.45606694560669L0.0 44.45606694560669Z" stroke="#323232" stroke-width="2.0" stroke-dasharray="none" opacity="1.0" fill="#cc99ff"/><g id="ProcessOnG1027" transform="matrix(1.0,0.0,0.0,1.0,10.0,14.103033472803347)"><text id="ProcessOnText1028" fill="#000000" font-size="13" x="39.164744645799004" y="13.325" font-family="微软雅黑" font-weight="normal" font-style="normal" text-decoration="none" family="微软雅黑" text-anchor="middle" size="13">bin</text></g></g><g id="ProcessOnG1029" transform="matrix(1.0,0.0,0.0,1.0,211.61285008237232,142.58577405857739)" opacity="1.0"><path id="ProcessOnPath1030" d="M0.0 0.0L100.32948929159801 0.0L100.32948929159801 44.45606694560669L0.0 44.45606694560669Z" stroke="#323232" stroke-width="2.0" stroke-dasharray="none" opacity="1.0" fill="#9933ff"/><g id="ProcessOnG1031" transform="matrix(1.0,0.0,0.0,1.0,10.0,14.103033472803347)"><text id="ProcessOnText1032" fill="#000000" font-size="13" x="39.164744645799004" y="13.325" font-family="微软雅黑" font-weight="normal" font-style="normal" text-decoration="none" family="微软雅黑" text-anchor="middle" size="13">doc</text></g></g><g id="ProcessOnG1033" transform="matrix(1.0,0.0,0.0,1.0,211.61285008237232,274.1757322175732)" opacity="1.0"><path id="ProcessOnPath1034" d="M0.0 0.0L100.32948929159801 0.0L100.32948929159801 44.45606694560669L0.0 44.45606694560669Z" stroke="#323232" stroke-width="2.0" stroke-dasharray="none" opacity="1.0" fill="#ff99ff"/><g id="ProcessOnG1035" transform="matrix(1.0,0.0,0.0,1.0,10.0,14.103033472803347)"><text id="ProcessOnText1036" fill="#000000" font-size="13" x="39.164744645799004" y="13.325" font-family="微软雅黑" font-weight="normal" font-style="normal" text-decoration="none" family="微软雅黑" text-anchor="middle" size="13">lib</text></g></g><g id="ProcessOnG1037" transform="matrix(1.0,0.0,0.0,1.0,384.1795716639209,407.54393305439334)" opacity="1.0"><path id="ProcessOnPath1038" d="M0.0 0.0L100.32948929159801 0.0L100.32948929159801 44.45606694560669L0.0 44.45606694560669Z" stroke="#323232" stroke-width="2.0" stroke-dasharray="none" opacity="1.0" fill="#ffff66"/><g id="ProcessOnG1039" transform="matrix(1.0,0.0,0.0,1.0,10.0,14.103033472803347)"><text id="ProcessOnText1040" fill="#000000" font-size="13" x="39.164744645799004" y="13.325" font-family="微软雅黑" font-weight="normal" font-style="normal" text-decoration="none" family="微软雅黑" text-anchor="middle" size="13">projectname</text></g></g><g id="ProcessOnG1041" transform="matrix(1.0,0.0,0.0,1.0,381.169686985173,206.60251046025104)" opacity="1.0"><path id="ProcessOnPath1042" d="M0.0 0.0L100.32948929159801 0.0L100.32948929159801 44.45606694560669L0.0 44.45606694560669Z" stroke="#323232" stroke-width="2.0" stroke-dasharray="none" opacity="1.0" fill="#ffff66"/><g id="ProcessOnG1043" transform="matrix(1.0,0.0,0.0,1.0,10.0,14.103033472803347)"><text id="ProcessOnText1044" fill="#000000" font-size="13" x="39.164744645799004" y="13.325" font-family="微软雅黑" font-weight="normal" font-style="normal" text-decoration="none" family="微软雅黑" text-anchor="middle" size="13">projectname</text></g></g><g id="ProcessOnG1045" transform="matrix(1.0,0.0,0.0,1.0,527.6507413509062,206.60251046025104)" opacity="1.0"><path id="ProcessOnPath1046" d="M0.0 0.0L100.32948929159801 0.0L100.32948929159801 44.45606694560669L0.0 44.45606694560669Z" stroke="#323232" stroke-width="2.0" stroke-dasharray="none" opacity="1.0" fill="#ffcc99"/><g id="ProcessOnG1047" transform="matrix(1.0,0.0,0.0,1.0,10.0,14.103033472803347)"><text id="ProcessOnText1048" fill="#000000" font-size="13" x="39.164744645799004" y="13.325" font-family="微软雅黑" font-weight="normal" font-style="normal" text-decoration="none" family="微软雅黑" text-anchor="middle" size="13">header.h</text></g></g><g id="ProcessOnG1049" transform="matrix(1.0,0.0,0.0,1.0,533.6705107084019,407.54393305439334)" opacity="1.0"><path id="ProcessOnPath1050" d="M0.0 0.0L100.32948929159801 0.0L100.32948929159801 44.45606694560669L0.0 44.45606694560669Z" stroke="#323232" stroke-width="2.0" stroke-dasharray="none" opacity="1.0" fill="#ccccff"/><g id="ProcessOnG1051" transform="matrix(1.0,0.0,0.0,1.0,10.0,14.103033472803347)"><text id="ProcessOnText1052" fill="#000000" font-size="13" x="39.164744645799004" y="13.325" font-family="微软雅黑" font-weight="normal" font-style="normal" text-decoration="none" family="微软雅黑" text-anchor="middle" size="13">source.cpp</text></g></g><g id="ProcessOnG1053"><path id="ProcessOnPath1054" d="M125.32948929159801 228.8305439330544L168.47116968698515 228.8305439330544L168.47116968698515 358.642259414226L196.37678210487252 358.642259414226" stroke="#323232" stroke-width="2.0" stroke-dasharray="none" fill="none" marker-end="url(#ProcessOnMarker1055)"/></g><g id="ProcessOnG1057"><path id="ProcessOnPath1058" d="M125.32948929159801 228.8305439330544L168.47116968698515 228.8305439330544L168.47116968698515 429.7719665271967L196.37678210487252 429.7719665271967" stroke="#323232" stroke-width="2.0" stroke-dasharray="none" fill="none" marker-end="url(#ProcessOnMarker1059)"/></g><g id="ProcessOnG1061"><path id="ProcessOnPath1062" d="M125.32948929159801 228.8305439330544L168.47116968698515 228.8305439330544L168.47116968698515 228.8305439330544L196.37678210487252 228.8305439330544" stroke="#323232" stroke-width="2.0" stroke-dasharray="none" fill="none" marker-end="url(#ProcessOnMarker1063)"/></g><g id="ProcessOnG1065"><path id="ProcessOnPath1066" d="M125.32948929159801 228.8305439330544L168.47116968698515 228.8305439330544L168.47116968698515 105.24267782426779L196.37678210487252 105.24267782426779" stroke="#323232" stroke-width="2.0" stroke-dasharray="none" fill="none" marker-end="url(#ProcessOnMarker1067)"/></g><g id="ProcessOnG1069"><path id="ProcessOnPath1070" d="M125.32948929159801 228.8305439330544L168.47116968698515 228.8305439330544L168.47116968698515 49.22803347280335L196.37678210487252 49.22803347280335" stroke="#323232" stroke-width="2.0" stroke-dasharray="none" fill="none" marker-end="url(#ProcessOnMarker1071)"/></g><g id="ProcessOnG1073"><path id="ProcessOnPath1074" d="M125.32948929159801 228.8305439330544L168.47116968698515 228.8305439330544L168.47116968698515 164.81380753138075L196.37678210487252 164.81380753138075" stroke="#323232" stroke-width="2.0" stroke-dasharray="none" fill="none" marker-end="url(#ProcessOnMarker1075)"/></g><g id="ProcessOnG1077"><path id="ProcessOnPath1078" d="M125.32948929159801 228.8305439330544L168.47116968698515 228.8305439330544L168.47116968698515 296.4037656903766L196.37678210487252 296.4037656903766" stroke="#323232" stroke-width="2.0" stroke-dasharray="none" fill="none" marker-end="url(#ProcessOnMarker1079)"/></g><g id="ProcessOnG1081"><path id="ProcessOnPath1082" d="M311.9423393739703 429.7719665271967L348.0609555189456 429.7719665271967L348.0609555189456 429.7719665271967L368.94350368642114 429.7719665271967" stroke="#323232" stroke-width="2.0" stroke-dasharray="none" fill="none" marker-end="url(#ProcessOnMarker1083)"/></g><g id="ProcessOnG1085"><path id="ProcessOnPath1086" d="M311.9423393739703 228.8305439330544L346.55601317957166 228.8305439330544L346.55601317957166 228.8305439330544L365.9336190076732 228.8305439330544" stroke="#323232" stroke-width="2.0" stroke-dasharray="none" fill="none" marker-end="url(#ProcessOnMarker1087)"/></g><g id="ProcessOnG1089"><path id="ProcessOnPath1090" d="M484.5090609555189 429.7719665271967L509.0897858319604 429.7719665271967L509.0897858319604 429.7719665271967L518.4344427309021 429.7719665271967" stroke="#323232" stroke-width="2.0" stroke-dasharray="none" fill="none" marker-end="url(#ProcessOnMarker1091)"/></g><g id="ProcessOnG1093"><path id="ProcessOnPath1094" d="M481.499176276771 228.8305439330544L504.5749588138386 228.8305439330544L504.5749588138386 228.8305439330544L512.4146733734063 228.8305439330544" stroke="#323232" stroke-width="2.0" stroke-dasharray="none" fill="none" marker-end="url(#ProcessOnMarker1095)"/></g><g id="ProcessOnG1097" transform="matrix(1.0,0.0,0.0,1.0,384.1795716639209,274.1757322175732)" opacity="1.0"><path id="ProcessOnPath1098" d="M0.0 0.0L100.32948929159801 0.0L100.32948929159801 44.45606694560669L0.0 44.45606694560669Z" stroke="#323232" stroke-width="2.0" stroke-dasharray="none" opacity="1.0" fill="#ffff66"/><g id="ProcessOnG1099" transform="matrix(1.0,0.0,0.0,1.0,10.0,14.103033472803347)"><text id="ProcessOnText1100" fill="#000000" font-size="13" x="39.164744645799004" y="13.325" font-family="微软雅黑" font-weight="normal" font-style="normal" text-decoration="none" family="微软雅黑" text-anchor="middle" size="13">projectname</text></g></g><g id="ProcessOnG1101"><path id="ProcessOnPath1102" d="M311.9423393739703 296.4037656903766L348.0609555189456 296.4037656903766L348.0609555189456 296.4037656903766L368.94350368642114 296.4037656903766" stroke="#323232" stroke-width="2.0" stroke-dasharray="none" fill="none" marker-end="url(#ProcessOnMarker1103)"/></g><g id="ProcessOnG1105" transform="matrix(1.0,0.0,0.0,1.0,530.660626029654,274.1757322175732)" opacity="1.0"><path id="ProcessOnPath1106" d="M0.0 0.0L100.32948929159801 0.0L100.32948929159801 44.45606694560669L0.0 44.45606694560669Z" stroke="#323232" stroke-width="2.0" stroke-dasharray="none" opacity="1.0" fill="#ffcce6"/><g id="ProcessOnG1107" transform="matrix(1.0,0.0,0.0,1.0,10.0,14.103033472803347)"><text id="ProcessOnText1108" fill="#000000" font-size="13" x="39.164744645799004" y="13.325" font-family="微软雅黑" font-weight="normal" font-style="normal" text-decoration="none" family="微软雅黑" text-anchor="middle" size="13">a.lib</text></g></g><g id="ProcessOnG1109"><path id="ProcessOnPath1110" d="M484.5090609555189 296.4037656903766L507.5848434925865 296.4037656903766L507.5848434925865 296.4037656903766L515.4245580521542 296.4037656903766" stroke="#323232" stroke-width="2.0" stroke-dasharray="none" fill="none" marker-end="url(#ProcessOnMarker1111)"/></g><g id="ProcessOnG1113" transform="matrix(1.0,0.0,0.0,1.0,384.1795716639209,336.4142259414226)" opacity="1.0"><path id="ProcessOnPath1114" d="M0.0 0.0L100.32948929159801 0.0L100.32948929159801 44.45606694560669L0.0 44.45606694560669Z" stroke="#323232" stroke-width="2.0" stroke-dasharray="none" opacity="1.0" fill="#ffff66"/><g id="ProcessOnG1115" transform="matrix(1.0,0.0,0.0,1.0,10.0,14.103033472803347)"><text id="ProcessOnText1116" fill="#000000" font-size="13" x="39.164744645799004" y="13.325" font-family="微软雅黑" font-weight="normal" font-style="normal" text-decoration="none" family="微软雅黑" text-anchor="middle" size="13">projectname</text></g></g><g id="ProcessOnG1117"><path id="ProcessOnPath1118" d="M311.9423393739703 358.642259414226L348.0609555189456 358.642259414226L348.0609555189456 358.642259414226L368.94350368642114 358.642259414226" stroke="#323232" stroke-width="2.0" stroke-dasharray="none" fill="none" marker-end="url(#ProcessOnMarker1119)"/></g><g id="ProcessOnG1121" transform="matrix(1.0,0.0,0.0,1.0,530.660626029654,336.4142259414226)" opacity="1.0"><path id="ProcessOnPath1122" d="M0.0 0.0L100.32948929159801 0.0L100.32948929159801 44.45606694560669L0.0 44.45606694560669Z" stroke="#323232" stroke-width="2.0" stroke-dasharray="none" opacity="1.0" fill="#ffccff"/><g id="ProcessOnG1123" transform="matrix(1.0,0.0,0.0,1.0,10.0,14.103033472803347)"><text id="ProcessOnText1124" fill="#000000" font-size="13" x="39.164744645799004" y="13.325" font-family="微软雅黑" font-weight="normal" font-style="normal" text-decoration="none" family="微软雅黑" text-anchor="middle" size="13">project.pro</text></g></g><g id="ProcessOnG1125"><path id="ProcessOnPath1126" d="M484.5090609555189 358.642259414226L507.5848434925865 358.642259414226L507.5848434925865 358.642259414226L515.4245580521542 358.642259414226" stroke="#323232" stroke-width="2.0" stroke-dasharray="none" fill="none" marker-end="url(#ProcessOnMarker1127)"/></g><g id="ProcessOnG1129" transform="matrix(1.0,0.0,0.0,1.0,381.169686985173,27.0)" opacity="1.0"><path id="ProcessOnPath1130" d="M0.0 0.0L100.32948929159801 0.0L100.32948929159801 44.45606694560669L0.0 44.45606694560669Z" stroke="#323232" stroke-width="2.0" stroke-dasharray="none" opacity="1.0" fill="#ffcc99"/><g id="ProcessOnG1131" transform="matrix(1.0,0.0,0.0,1.0,10.0,-2.1469665271966534)"><text id="ProcessOnText1132" fill="#000000" font-size="13" x="39.164744645799004" y="13.325" font-family="微软雅黑" font-weight="normal" font-style="normal" text-decoration="none" family="微软雅黑" text-anchor="middle" size="13">bin.exe</text><text id="ProcessOnText1133" fill="#000000" font-size="13" x="39.164744645799004" y="29.575" font-family="微软雅黑" font-weight="normal" font-style="normal" text-decoration="none" family="微软雅黑" text-anchor="middle" size="13">bin.dll</text><text id="ProcessOnText1134" fill="#000000" font-size="13" x="39.164744645799004" y="45.825" font-family="微软雅黑" font-weight="normal" font-style="normal" text-decoration="none" family="微软雅黑" text-anchor="middle" size="13">...</text></g></g><g id="ProcessOnG1135"><path id="ProcessOnPath1136" d="M311.9423393739703 49.22803347280335L346.55601317957166 49.22803347280335L346.55601317957166 49.22803347280335L365.9336190076732 49.22803347280335" stroke="#323232" stroke-width="2.0" stroke-dasharray="none" fill="none" marker-end="url(#ProcessOnMarker1137)"/></g></g></g></svg>